<?xml version="1.0" encoding="UTF-8"?>
<svg width="131px" height="28px" viewBox="0 0 131 28" version="1.1" xmlns="http://www.w3.org/2000/svg" xmlns:xlink="http://www.w3.org/1999/xlink">
    <title>Artboard</title>
    <g id="Artboard" stroke="none" stroke-width="1" fill="none" fill-rule="evenodd">
        <path d="M14,0 C21.7319865,0 28,6.2680135 28,14 C28,21.7319865 21.7319865,28 14,28 C6.2680135,28 0,21.7319865 0,14 C0,13.9620998 0,13.9242348 0.00045124,13.8864056 L0,13.7697368 C0,20.9676058 5.83502573,26.8026315 13.0328947,26.8026315 C20.2307638,26.8026315 26.0657895,20.9676058 26.0657895,13.7697368 C26.0657895,6.57186784 20.2307638,0.73684211 13.0328947,0.73684211 C7.98288523,0.73684211 3.60372108,3.60907261 1.43988943,7.80904652 C3.72467955,3.18228649 8.49070835,0 14,0 Z" id="Combined-Shape" fill="#000000" fill-rule="nonzero"></path>
        <path d="M12.8947368,1.65789473 C17.3056606,1.65789473 21.1595137,4.04299745 23.2369628,7.59386932 C21.3383285,4.68535994 18.0548257,2.7631579 14.3223685,2.7631579 C8.44707605,2.7631579 3.68421053,7.52602342 3.68421053,13.4013158 C3.68421053,19.2766081 8.44707605,24.0394737 14.3223685,24.0394737 C19.2547619,24.0394737 23.403134,20.6826789 24.607604,16.1289701 C23.4588777,21.5430905 18.6511929,25.6052632 12.8947368,25.6052632 C6.28185365,25.6052632 0.92105263,20.2444622 0.92105263,13.631579 C0.92105263,7.01869576 6.28185365,1.65789473 12.8947368,1.65789473 Z" id="Combined-Shape" fill="#000000" fill-rule="nonzero"></path>
        <path d="M18.0682377,6.57953748 L18.1830646,6.53783163 L18.5549375,7.54066849 L18.4862239,7.56622732 C18.4467698,7.58090274 18.4081131,7.59579451 18.3702456,7.61091303 L18.2955609,7.64145546 C17.3137333,8.0528007 16.8893768,8.63030049 16.8691794,9.5706625 L16.8686112,9.6060965 L16.8684177,9.6424304 L16.8683974,10.3444665 L16.9049654,10.3487267 C18.0200486,10.4808692 19.0390833,10.7119121 19.9122837,11.0294141 L19.9937174,11.0594329 L20.0719303,11.089051 C20.1059071,11.1018967 20.1395793,11.114849 20.1729455,11.1279066 L20.2721246,11.1673949 C20.3376301,11.1939298 20.4019059,11.220882 20.4649407,11.2482426 L20.5585609,11.2895889 C20.6049043,11.3104141 20.6505464,11.3314665 20.6954825,11.3527425 L20.7844122,11.3955914 C22.030875,12.0068084 22.7080812,12.7954704 22.7080812,13.6765778 C22.7080812,14.6095149 21.9488603,15.4388111 20.5584507,16.0636081 L20.4648231,16.1049572 C20.3387431,16.1596824 20.2076985,16.2127741 20.0717791,16.2641615 C19.1741627,16.601269 18.1375705,16.847902 17.0150637,16.990604 L16.9095786,17.0036773 L16.8683974,17.0084665 L16.8684177,17.7107251 C16.8684177,19.1732069 16.1508443,20.1688148 14.6881551,20.7395902 L14.6436031,20.7567564 L14.5981378,20.7738323 L14.4839946,20.8156088 L14.112016,19.812487 L14.1807297,19.7869282 C15.298597,19.3711249 15.7763145,18.7816276 15.7977741,17.7824931 L15.7983424,17.747059 L15.798536,17.7107251 L15.7985349,17.100954 L15.7097961,17.1075676 C15.3740634,17.1309793 15.0383282,17.1456118 14.7025917,17.1514648 L14.5347233,17.1536596 L14.3668547,17.1543912 C13.9497113,17.1543912 13.5240225,17.1408556 13.1216416,17.1146027 L12.9884216,17.1053818 L12.9350974,17.1012165 L12.9351735,17.7107251 C12.9351735,19.1669834 12.2051374,20.1661862 10.7352766,20.7394416 L10.6905089,20.7566827 L10.6448292,20.7738333 L10.5306817,20.8156088 L10.1587043,19.812487 L10.227418,19.7869282 C11.3452852,19.3711249 11.8230027,18.7816276 11.8444624,17.7824931 L11.8450306,17.747059 L11.8452242,17.7107251 L11.8451974,17.0086415 L11.8086764,17.0044289 C10.6935933,16.8722863 9.6745586,16.6412434 8.8013582,16.3237414 L8.71992444,16.2937226 L8.59133432,16.2448883 L8.49191164,16.2059419 L8.39427327,16.1663175 C6.86251202,15.533613 6.00556067,14.6494246 6.00556067,13.6765778 C6.00556067,12.8880598 6.56853735,12.1577862 7.59757348,11.572432 L7.67869969,11.5271148 C7.82915421,11.4445766 7.98906877,11.3650419 8.15816082,11.2887634 L8.25130131,11.2474814 C8.37669765,11.1928733 8.50692103,11.1400118 8.64186275,11.088994 C9.5394791,10.7518865 10.5760713,10.5052536 11.6985782,10.3625516 L11.8040633,10.3494782 L11.8451974,10.344554 L11.8452242,9.6424304 C11.8452242,8.17665424 12.5661314,7.1828578 14.0442891,6.61338207 L14.0893136,6.59625506 L14.1352637,6.57921847 L14.2498208,6.53783163 L14.6216934,7.54066849 L14.5529797,7.56622732 C13.4351124,7.98203066 12.9573949,8.57152787 12.9359353,9.5706625 L12.935367,9.6060965 L12.9351735,9.6424304 L12.9350974,10.252154 L13.0239133,10.2455879 C13.359646,10.2221762 13.6953812,10.2075438 14.0311177,10.2016908 L14.1989861,10.1994959 L14.3668547,10.1987643 C14.7839981,10.1987643 15.2096869,10.2122999 15.6120678,10.2385528 L15.7452878,10.2477737 L15.7985349,10.2518915 L15.798536,9.6424304 C15.798536,8.16528477 16.5305193,7.16446522 18.0227848,6.59661265 L18.0682377,6.57953748 Z M14.3668547,11.2704397 C13.941556,11.2704397 13.5297132,11.2835614 13.1315395,11.3097836 L12.9993214,11.3190095 L12.9350974,11.3239415 L12.9350974,16.0291665 L12.9776596,16.0325101 C13.3834293,16.062787 13.819142,16.079743 14.2496106,16.0823587 L14.3668547,16.0827158 C14.7921535,16.0827158 15.2039962,16.0695941 15.60217,16.0433719 L15.734388,16.034146 L15.7985349,16.029079 L15.7985349,11.3239415 L15.7560498,11.3206454 C15.3502801,11.2903686 14.9145674,11.2734126 14.4840988,11.2707968 L14.3668547,11.2704397 Z M11.8451974,15.934754 L11.8451974,11.4182665 L11.8325541,11.4200033 C10.7866469,11.5591642 9.8246117,11.7899457 9.034857,12.0921711 L8.99029044,12.1092317 L8.90252995,12.1436872 C8.84463598,12.1668033 8.78797204,12.1902074 8.73256201,12.2138768 L8.65039038,12.2495771 C8.63685283,12.2555594 8.6233944,12.2615576 8.61001547,12.2675713 L8.53069865,12.3038369 C8.50457966,12.3159857 8.47878159,12.3281938 8.45330743,12.3404583 L8.3778597,12.3774186 L8.30437335,12.4147009 C8.18354052,12.4770969 8.07095468,12.540764 7.96698868,12.60535 L7.90564644,12.644209 C7.89559612,12.650703 7.88563275,12.6572054 7.87575669,12.663716 L7.81755114,12.7028741 C7.35081157,13.0234168 7.09550993,13.3617951 7.09550993,13.6765778 C7.09550993,13.9656639 7.31083098,14.2746505 7.70743853,14.5714246 L7.76139085,14.6109192 C7.77973105,14.6240581 7.79842637,14.6371701 7.81747381,14.6502523 L7.8756695,14.6894067 C7.88554385,14.6959166 7.89550548,14.7024184 7.90555401,14.7089117 L7.96688518,14.7477666 C8.0188586,14.780056 8.07298609,14.8121153 8.12922096,14.8439005 L8.19771137,14.8819084 C8.22087669,14.8945319 8.24437621,14.9071088 8.26820693,14.9196362 L8.34068973,14.957067 L8.41514182,14.9941839 C8.44028542,15.006502 8.46575424,15.018765 8.4915453,15.03097 L8.56988223,15.0674084 C8.58309851,15.0734515 8.5963946,15.0794795 8.60977013,15.0854919 L8.69097362,15.121377 C8.70466542,15.1273258 8.71843591,15.1332583 8.73228472,15.1391743 L8.81631443,15.174468 L8.90220587,15.2093463 C8.91667527,15.2151238 8.93122148,15.2208833 8.94584415,15.2266244 L9.0344946,15.2608479 C9.8268969,15.5568669 10.7363028,15.7798427 11.7243115,15.9183513 L11.8451974,15.934754 Z M16.8887382,11.4210312 L16.8683974,11.418354 L16.8683974,15.934754 L16.8810877,15.9331522 C17.8953008,15.7982084 18.8306479,15.5771125 19.6065168,15.288262 L19.7233514,15.2439238 L19.8111119,15.2094683 L19.8970273,15.174581 C19.9111918,15.1687314 19.9252787,15.1628645 19.9392876,15.1569807 L20.0224019,15.1214773 L20.1036264,15.0855843 C20.1303842,15.0735569 20.1568242,15.0614674 20.1829432,15.0493186 L20.2603344,15.0126972 C20.4259164,14.9329776 20.577813,14.8508717 20.7152052,14.7671534 L20.777584,14.7284025 L20.8378852,14.6894396 C21.341564,14.3574007 21.6181319,14.0042087 21.6181319,13.6765778 C21.6181319,13.355371 21.3523034,13.0095956 20.8673332,12.6833026 L20.8080878,12.6442438 C20.7879907,12.6312573 20.767546,12.6183047 20.7467566,12.6053889 L20.6833576,12.5667549 C20.6618819,12.5539156 20.6400646,12.5411159 20.6179085,12.5283587 L20.5504275,12.4902171 C20.5047667,12.4648781 20.4577632,12.4397201 20.4094408,12.4147658 L20.3359711,12.3774898 C20.3235623,12.3713035 20.3110718,12.3651307 20.2985,12.3589716 L20.2220966,12.3221855 C20.209201,12.316083 20.1962249,12.309995 20.1831686,12.3039218 L20.1038717,12.2676636 C20.0904962,12.2616512 20.0770412,12.2556544 20.0635072,12.2496734 L19.9813571,12.2139812 C19.8844154,12.1725695 19.7836362,12.1319713 19.6791473,12.0923076 C18.8598136,11.7862279 17.9156138,11.558316 16.8887382,11.4210312 Z" id="Combined-Shape" fill="#000000" fill-rule="nonzero"></path>
        <path d="M33.4795244,18.9447592 L33.4795244,8.4858357 L41.2470277,18.9447592 L42.7635402,18.9447592 L42.7635402,6.05524079 L41.3025099,6.05524079 L41.3025099,16.5325779 L33.5350066,6.05524079 L32,6.05524079 L32,18.9447592 L33.4795244,18.9447592 Z M55.7278731,18.9447592 L55.7278731,17.5821529 L48.1822985,17.5821529 L48.1822985,13.0892351 L54.7107001,13.0892351 L54.7107001,11.7450425 L48.1822985,11.7450425 L48.1822985,7.417847 L55.4874504,7.417847 L55.4874504,6.05524079 L46.702774,6.05524079 L46.702774,18.9447592 L55.7278731,18.9447592 Z M62.7371201,18.9447592 L66.2694847,8.0254957 L69.7648612,18.9447592 L71.2813737,18.9447592 L75.6274768,6.05524079 L74.0924702,6.05524079 L70.5785997,17.2875354 L67.027741,6.05524079 L65.5482165,6.05524079 L62.034346,17.2875354 L58.4834874,6.05524079 L56.8929986,6.05524079 L61.2206076,18.9447592 L62.7371201,18.9447592 Z M81.1387053,19 C83.9128136,19 85.8178064,17.6189802 85.8178064,15.4830028 C85.8361954,10.805949 78.5495375,12.5552408 78.5495375,9.203966 C78.5495375,8.0991501 79.6406868,7.4362606 81.3051518,7.4362606 C82.3408189,7.4362606 83.7093789,7.7492918 84.8745044,8.5042493 L85.5033024,7.1968838 C84.4306471,6.47875354 82.8956406,6 81.3976221,6 C78.715984,6 76.9220606,7.2889518 76.9220606,9.3144476 C76.9220606,13.9362606 84.2087184,12.1133144 84.1902244,15.5566573 C84.1902244,16.8087818 83.0250989,17.5637394 81.1571993,17.5637394 C79.6961689,17.5637394 78.050198,16.9008499 76.8480844,15.7592068 L76.1822984,17.029745 C77.4029061,18.1898017 79.2523116,19 81.1387053,19 Z M92.8454424,18.9447592 L96.377807,8.0254957 L99.873183,18.9447592 L101.389696,18.9447592 L105.735799,6.05524079 L104.200792,6.05524079 L100.686922,17.2875354 L97.1360632,6.05524079 L95.6565388,6.05524079 L92.1426682,17.2875354 L88.5918096,6.05524079 L87.0013209,6.05524079 L91.3289298,18.9447592 L92.8454424,18.9447592 Z M106.494055,18.9447592 L107.936592,15.6487252 L114.982827,15.6487252 L116.443857,18.9447592 L118.05284,18.9447592 L112.264201,6.05524079 L110.729194,6.05524079 L104.922061,18.9447592 L106.494055,18.9447592 Z M114.391017,14.286119 L108.546895,14.286119 L111.450462,7.6572238 L114.391017,14.286119 Z M121.566711,18.9447592 L121.566711,14.8569405 L124.951123,14.8569405 C128.150594,14.8569405 130,13.2181303 130,10.3824363 C130,7.6388102 128.150594,6.05524079 124.951123,6.05524079 L120.087186,6.05524079 L120.087186,18.9447592 L121.566711,18.9447592 Z M124.895641,13.4943343 L121.566711,13.4943343 L121.566711,7.417847 L124.895641,7.417847 C127.225892,7.417847 128.575957,8.4490085 128.575957,10.4192635 C128.575957,12.4447592 127.225892,13.4943343 124.895641,13.4943343 Z" id="NEWSWAP" stroke="#131313" stroke-width="0.535714286" fill="#000000" fill-rule="nonzero"></path>
        <rect id="Rectangle" fill="#20C5A0" x="32" y="21" width="38" height="7" rx="3.5"></rect>
        <path d="M37.5495,27 L37.5495,22.87 L39.1735,22.87 L39.1735,22.1 L35.0155,22.1 L35.0155,22.87 L36.6395,22.87 L36.6395,27 L37.5495,27 Z M43.5345,27 L43.5345,26.237 L40.7695,26.237 L40.7695,24.886 L43.1355,24.886 L43.1355,24.137 L40.7695,24.137 L40.7695,22.863 L43.4365,22.863 L43.4365,22.1 L39.8595,22.1 L39.8595,27 L43.5345,27 Z M46.0685,27.07 C47.4125,27.07 48.0495,26.398 48.0495,25.614 C48.0495,23.815 45.1445,24.494 45.1445,23.451 C45.1445,23.08 45.4525,22.786 46.2085,22.786 C46.6355,22.786 47.1185,22.912 47.5595,23.171 L47.8465,22.464 C47.4195,22.184 46.8035,22.03 46.2155,22.03 C44.8715,22.03 44.2415,22.702 44.2415,23.493 C44.2415,25.313 47.1535,24.62 47.1535,25.677 C47.1535,26.041 46.8315,26.314 46.0685,26.314 C45.4665,26.314 44.8435,26.09 44.4515,25.775 L44.1365,26.482 C44.5425,26.832 45.3055,27.07 46.0685,27.07 Z M50.7865,27 L50.7865,22.87 L52.4105,22.87 L52.4105,22.1 L48.2525,22.1 L48.2525,22.87 L49.8765,22.87 L49.8765,27 L50.7865,27 Z M53.9995,27 L53.9995,23.682 L56.7015,27 L57.4505,27 L57.4505,22.1 L56.5475,22.1 L56.5475,25.418 L53.8455,22.1 L53.0965,22.1 L53.0965,27 L53.9995,27 Z M62.4415,27 L62.4415,26.237 L59.6765,26.237 L59.6765,24.886 L62.0425,24.886 L62.0425,24.137 L59.6765,24.137 L59.6765,22.863 L62.3435,22.863 L62.3435,22.1 L58.7665,22.1 L58.7665,27 L62.4415,27 Z M65.3605,27 L65.3605,22.87 L66.9845,22.87 L66.9845,22.1 L62.8265,22.1 L62.8265,22.87 L64.4505,22.87 L64.4505,27 L65.3605,27 Z" id="TESTNET" fill="#000000" fill-rule="nonzero"></path>
    </g>
</svg>