<?xml version="1.0" encoding="UTF-8"?>
<svg width="140px" height="40px" viewBox="0 0 140 40" version="1.1" xmlns="http://www.w3.org/2000/svg" xmlns:xlink="http://www.w3.org/1999/xlink">
    <title>logo</title>
    <g id="logo" stroke="none" stroke-width="1" fill="none" fill-rule="evenodd">
        <path d="M36.967,26 L36.967,16.604 L44.527,26 L46.003,26 L46.003,13.4 L44.203,13.4 L44.203,22.796 L36.643,13.4 L35.167,13.4 L35.167,26 L36.967,26 Z M58.927,26 L58.927,24.434 L51.583,24.434 L51.583,20.366 L57.901,20.366 L57.901,18.836 L51.583,18.836 L51.583,14.966 L58.675,14.966 L58.675,13.4 L49.783,13.4 L49.783,26 L58.927,26 Z M66.487,26 L69.925,15.938 L73.363,26 L75.253,26 L79.465,13.4 L77.755,13.4 L74.281,23.696 L70.807,13.4 L69.151,13.4 L65.605,23.642 L62.203,13.4 L60.349,13.4 L64.561,26 L66.487,26 Z M85.333,26.144 C88.663,26.144 90.211,24.488 90.211,22.562 C90.211,17.936 82.579,19.862 82.579,16.784 C82.579,15.686 83.497,14.786 85.639,14.786 C86.755,14.786 87.997,15.11 89.095,15.812 L89.689,14.372 C88.645,13.652 87.115,13.256 85.639,13.256 C82.327,13.256 80.815,14.912 80.815,16.856 C80.815,21.536 88.447,19.592 88.447,22.67 C88.447,23.768 87.511,24.614 85.333,24.614 C83.713,24.614 82.111,24.002 81.175,23.156 L80.509,24.56 C81.517,25.496 83.407,26.144 85.333,26.144 Z M97.663,26 L101.101,15.938 L104.539,26 L106.429,26 L110.641,13.4 L108.931,13.4 L105.457,23.696 L101.983,13.4 L100.327,13.4 L96.781,23.642 L93.379,13.4 L91.525,13.4 L95.737,26 L97.663,26 Z M112.387,26 L113.773,22.85 L120.469,22.85 L121.855,26 L123.745,26 L118.021,13.4 L116.239,13.4 L110.533,26 L112.387,26 Z M119.839,21.41 L114.403,21.41 L117.121,15.236 L119.839,21.41 Z M127.417,26 L127.417,22.184 L130.531,22.184 C133.807,22.184 135.787,20.528 135.787,17.792 C135.787,15.056 133.807,13.4 130.531,13.4 L125.617,13.4 L125.617,26 L127.417,26 Z M130.477,20.618 L127.417,20.618 L127.417,14.966 L130.477,14.966 C132.781,14.966 133.987,15.992 133.987,17.792 C133.987,19.592 132.781,20.618 130.477,20.618 Z" id="NEWSWAP" fill="#131415" fill-rule="nonzero"></path>
        <path d="M23.6233852,28.7049745 C20.8535804,31.5009797 17.0831583,32.6676065 13.475766,32.211306 L20.6708107,24.9480576 C21.9734881,23.6332011 21.9734881,21.5012186 20.6708107,20.1863622 L17.4628987,16.9481054 C17.0382825,16.5194725 16.3496656,16.5194725 15.9249073,16.9481054 C15.500291,17.3768816 15.500291,18.0720123 15.9249073,18.5007885 L18.7968186,21.3998663 C19.4265004,22.0356478 19.4265004,23.0662303 18.7968186,23.7020118 L10.9560448,31.6168109 C9.28370981,31.0250395 7.71362366,30.0543796 6.37672141,28.7049745 C1.61420248,23.8972619 1.61420248,16.1025947 6.37672141,11.2950256 C9.1466681,8.49902042 12.9169482,7.33239356 16.5244825,7.78869403 L9.3292957,15.0519425 C8.02676041,16.3667989 8.02676041,18.4986381 9.3292957,19.8136379 L12.5372078,23.0516079 C12.9618241,23.4805276 13.6504409,23.4805276 14.0751992,23.0516079 C14.4999575,22.6229751 14.4999575,21.9279878 14.0751992,21.4990682 L11.2032878,18.6001338 C10.573606,17.9643523 10.573606,16.9337698 11.2032878,16.2979883 L19.0440618,8.38304583 C20.7163967,8.97496058 22.2864829,9.94547719 23.6233852,11.2950256 C28.385904,16.1025947 28.385904,23.8972619 23.6233852,28.7049745 M24.8995061,10.0068333 C23.5789353,8.67362738 22.0588374,7.66555169 20.4373428,6.97658527 L22.3955482,5 L18.1481072,6.23099346 C13.604145,5.17690065 8.64053685,6.43341139 5.10060038,10.0068333 C-0.366866795,15.5258757 -0.366866795,24.4739811 5.10060038,29.9930234 C6.42131324,31.3262293 7.94126911,32.3341617 9.56262164,33.0234148 L7.60455834,35 L11.8518573,33.7688633 C16.3959616,34.8230994 21.3595696,33.5665886 24.8995061,29.9930234 C30.3668313,24.4739811 30.3668313,15.5258757 24.8995061,10.0068333" id="Fill-1" fill="#000000" fill-rule="nonzero"></path>
    </g>
</svg>