<?xml version="1.0" encoding="UTF-8"?>
<svg width="135px" height="30px" viewBox="0 0 135 30" version="1.1" xmlns="http://www.w3.org/2000/svg" xmlns:xlink="http://www.w3.org/1999/xlink">
    <title>newswap</title>
    <g id="newswap" stroke="none" stroke-width="1" fill="none" fill-rule="evenodd">
        <path d="M15,1 C22.7319865,1 29,7.2680135 29,15 C29,22.7319865 22.7319865,29 15,29 C7.2680135,29 1,22.7319865 1,15 C1,14.9620998 1,14.9242348 1.00045124,14.8864056 L1,14.7697368 C1,21.9676058 6.83502573,27.8026315 14.0328947,27.8026315 C21.2307638,27.8026315 27.0657895,21.9676058 27.0657895,14.7697368 C27.0657895,7.57186784 21.2307638,1.73684211 14.0328947,1.73684211 C8.98288523,1.73684211 4.60372108,4.60907261 2.43988943,8.80904652 C4.72467955,4.18228649 9.49070835,1 15,1 Z" id="Combined-Shape" fill="#000000" fill-rule="nonzero"></path>
        <path d="M13.8947368,2.65789473 C18.3056606,2.65789473 22.1595137,5.04299745 24.2369628,8.59386932 C22.3383285,5.68535994 19.0548257,3.7631579 15.3223685,3.7631579 C9.44707605,3.7631579 4.68421053,8.52602342 4.68421053,14.4013158 C4.68421053,20.2766081 9.44707605,25.0394737 15.3223685,25.0394737 C20.2547619,25.0394737 24.403134,21.6826789 25.607604,17.1289701 C24.4588777,22.5430905 19.6511929,26.6052632 13.8947368,26.6052632 C7.28185365,26.6052632 1.92105263,21.2444622 1.92105263,14.631579 C1.92105263,8.01869576 7.28185365,2.65789473 13.8947368,2.65789473 Z" id="Combined-Shape" fill="#000000" fill-rule="nonzero"></path>
        <path d="M19.0682377,7.57953748 L19.1830646,7.53783163 L19.5549375,8.54066849 L19.4862239,8.56622732 C19.4467698,8.58090274 19.4081131,8.59579451 19.3702456,8.61091303 L19.2955609,8.64145546 C18.3137333,9.0528007 17.8893768,9.63030049 17.8691794,10.5706625 L17.8686112,10.6060965 L17.8684177,10.6424304 L17.8683974,11.3444665 L17.9049654,11.3487267 C19.0200486,11.4808692 20.0390833,11.7119121 20.9122837,12.0294141 L20.9937174,12.0594329 L21.0719303,12.089051 C21.1059071,12.1018967 21.1395793,12.114849 21.1729455,12.1279066 L21.2721246,12.1673949 C21.3376301,12.1939298 21.4019059,12.220882 21.4649407,12.2482426 L21.5585609,12.2895889 C21.6049043,12.3104141 21.6505464,12.3314665 21.6954825,12.3527425 L21.7844122,12.3955914 C23.030875,13.0068084 23.7080812,13.7954704 23.7080812,14.6765778 C23.7080812,15.6095149 22.9488603,16.4388111 21.5584507,17.0636081 L21.4648231,17.1049572 C21.3387431,17.1596824 21.2076985,17.2127741 21.0717791,17.2641615 C20.1741627,17.601269 19.1375705,17.847902 18.0150637,17.990604 L17.9095786,18.0036773 L17.8683974,18.0084665 L17.8684177,18.7107251 C17.8684177,20.1732069 17.1508443,21.1688148 15.6881551,21.7395902 L15.6436031,21.7567564 L15.5981378,21.7738323 L15.4839946,21.8156088 L15.112016,20.812487 L15.1807297,20.7869282 C16.298597,20.3711249 16.7763145,19.7816276 16.7977741,18.7824931 L16.7983424,18.747059 L16.798536,18.7107251 L16.7985349,18.100954 L16.7097961,18.1075676 C16.3740634,18.1309793 16.0383282,18.1456118 15.7025917,18.1514648 L15.5347233,18.1536596 L15.3668547,18.1543912 C14.9497113,18.1543912 14.5240225,18.1408556 14.1216416,18.1146027 L13.9884216,18.1053818 L13.9350974,18.1012165 L13.9351735,18.7107251 C13.9351735,20.1669834 13.2051374,21.1661862 11.7352766,21.7394416 L11.6905089,21.7566827 L11.6448292,21.7738333 L11.5306817,21.8156088 L11.1587043,20.812487 L11.227418,20.7869282 C12.3452852,20.3711249 12.8230027,19.7816276 12.8444624,18.7824931 L12.8450306,18.747059 L12.8452242,18.7107251 L12.8451974,18.0086415 L12.8086764,18.0044289 C11.6935933,17.8722863 10.6745586,17.6412434 9.8013582,17.3237414 L9.71992444,17.2937226 L9.59133432,17.2448883 L9.49191164,17.2059419 L9.39427327,17.1663175 C7.86251202,16.533613 7.00556067,15.6494246 7.00556067,14.6765778 C7.00556067,13.8880598 7.56853735,13.1577862 8.59757348,12.572432 L8.67869969,12.5271148 C8.82915421,12.4445766 8.98906877,12.3650419 9.15816082,12.2887634 L9.25130131,12.2474814 C9.37669765,12.1928733 9.50692103,12.1400118 9.64186275,12.088994 C10.5394791,11.7518865 11.5760713,11.5052536 12.6985782,11.3625516 L12.8040633,11.3494782 L12.8451974,11.344554 L12.8452242,10.6424304 C12.8452242,9.17665424 13.5661314,8.1828578 15.0442891,7.61338207 L15.0893136,7.59625506 L15.1352637,7.57921847 L15.2498208,7.53783163 L15.6216934,8.54066849 L15.5529797,8.56622732 C14.4351124,8.98203066 13.9573949,9.57152787 13.9359353,10.5706625 L13.935367,10.6060965 L13.9351735,10.6424304 L13.9350974,11.252154 L14.0239133,11.2455879 C14.359646,11.2221762 14.6953812,11.2075438 15.0311177,11.2016908 L15.1989861,11.1994959 L15.3668547,11.1987643 C15.7839981,11.1987643 16.2096869,11.2122999 16.6120678,11.2385528 L16.7452878,11.2477737 L16.7985349,11.2518915 L16.798536,10.6424304 C16.798536,9.16528477 17.5305193,8.16446522 19.0227848,7.59661265 L19.0682377,7.57953748 Z M15.3668547,12.2704397 C14.941556,12.2704397 14.5297132,12.2835614 14.1315395,12.3097836 L13.9993214,12.3190095 L13.9350974,12.3239415 L13.9350974,17.0291665 L13.9776596,17.0325101 C14.3834293,17.062787 14.819142,17.079743 15.2496106,17.0823587 L15.3668547,17.0827158 C15.7921535,17.0827158 16.2039962,17.0695941 16.60217,17.0433719 L16.734388,17.034146 L16.7985349,17.029079 L16.7985349,12.3239415 L16.7560498,12.3206454 C16.3502801,12.2903686 15.9145674,12.2734126 15.4840988,12.2707968 L15.3668547,12.2704397 Z M12.8451974,16.934754 L12.8451974,12.4182665 L12.8325541,12.4200033 C11.7866469,12.5591642 10.8246117,12.7899457 10.034857,13.0921711 L9.99029044,13.1092317 L9.90252995,13.1436872 C9.84463598,13.1668033 9.78797204,13.1902074 9.73256201,13.2138768 L9.65039038,13.2495771 C9.63685283,13.2555594 9.6233944,13.2615576 9.61001547,13.2675713 L9.53069865,13.3038369 C9.50457966,13.3159857 9.47878159,13.3281938 9.45330743,13.3404583 L9.3778597,13.3774186 L9.30437335,13.4147009 C9.18354052,13.4770969 9.07095468,13.540764 8.96698868,13.60535 L8.90564644,13.644209 C8.89559612,13.650703 8.88563275,13.6572054 8.87575669,13.663716 L8.81755114,13.7028741 C8.35081157,14.0234168 8.09550993,14.3617951 8.09550993,14.6765778 C8.09550993,14.9656639 8.31083098,15.2746505 8.70743853,15.5714246 L8.76139085,15.6109192 C8.77973105,15.6240581 8.79842637,15.6371701 8.81747381,15.6502523 L8.8756695,15.6894067 C8.88554385,15.6959166 8.89550548,15.7024184 8.90555401,15.7089117 L8.96688518,15.7477666 C9.0188586,15.780056 9.07298609,15.8121153 9.12922096,15.8439005 L9.19771137,15.8819084 C9.22087669,15.8945319 9.24437621,15.9071088 9.26820693,15.9196362 L9.34068973,15.957067 L9.41514182,15.9941839 C9.44028542,16.006502 9.46575424,16.018765 9.4915453,16.03097 L9.56988223,16.0674084 C9.58309851,16.0734515 9.5963946,16.0794795 9.60977013,16.0854919 L9.69097362,16.121377 C9.70466542,16.1273258 9.71843591,16.1332583 9.73228472,16.1391743 L9.81631443,16.174468 L9.90220587,16.2093463 C9.91667527,16.2151238 9.93122148,16.2208833 9.94584415,16.2266244 L10.0344946,16.2608479 C10.8268969,16.5568669 11.7363028,16.7798427 12.7243115,16.9183513 L12.8451974,16.934754 Z M17.8887382,12.4210312 L17.8683974,12.418354 L17.8683974,16.934754 L17.8810877,16.9331522 C18.8953008,16.7982084 19.8306479,16.5771125 20.6065168,16.288262 L20.7233514,16.2439238 L20.8111119,16.2094683 L20.8970273,16.174581 C20.9111918,16.1687314 20.9252787,16.1628645 20.9392876,16.1569807 L21.0224019,16.1214773 L21.1036264,16.0855843 C21.1303842,16.0735569 21.1568242,16.0614674 21.1829432,16.0493186 L21.2603344,16.0126972 C21.4259164,15.9329776 21.577813,15.8508717 21.7152052,15.7671534 L21.777584,15.7284025 L21.8378852,15.6894396 C22.341564,15.3574007 22.6181319,15.0042087 22.6181319,14.6765778 C22.6181319,14.355371 22.3523034,14.0095956 21.8673332,13.6833026 L21.8080878,13.6442438 C21.7879907,13.6312573 21.767546,13.6183047 21.7467566,13.6053889 L21.6833576,13.5667549 C21.6618819,13.5539156 21.6400646,13.5411159 21.6179085,13.5283587 L21.5504275,13.4902171 C21.5047667,13.4648781 21.4577632,13.4397201 21.4094408,13.4147658 L21.3359711,13.3774898 C21.3235623,13.3713035 21.3110718,13.3651307 21.2985,13.3589716 L21.2220966,13.3221855 C21.209201,13.316083 21.1962249,13.309995 21.1831686,13.3039218 L21.1038717,13.2676636 C21.0904962,13.2616512 21.0770412,13.2556544 21.0635072,13.2496734 L20.9813571,13.2139812 C20.8844154,13.1725695 20.7836362,13.1319713 20.6791473,13.0923076 C19.8598136,12.7862279 18.9156138,12.558316 17.8887382,12.4210312 Z" id="Combined-Shape" fill="#000000" fill-rule="nonzero"></path>
        <path d="M34.4795244,21.9447592 L34.4795244,11.4858357 L42.2470277,21.9447592 L43.7635402,21.9447592 L43.7635402,9.05524079 L42.3025099,9.05524079 L42.3025099,19.5325779 L34.5350066,9.05524079 L33,9.05524079 L33,21.9447592 L34.4795244,21.9447592 Z M56.7278731,21.9447592 L56.7278731,20.5821529 L49.1822985,20.5821529 L49.1822985,16.0892351 L55.7107001,16.0892351 L55.7107001,14.7450425 L49.1822985,14.7450425 L49.1822985,10.417847 L56.4874504,10.417847 L56.4874504,9.05524079 L47.702774,9.05524079 L47.702774,21.9447592 L56.7278731,21.9447592 Z M63.7371201,21.9447592 L67.2694847,11.0254957 L70.7648612,21.9447592 L72.2813737,21.9447592 L76.6274768,9.05524079 L75.0924702,9.05524079 L71.5785997,20.2875354 L68.027741,9.05524079 L66.5482165,9.05524079 L63.034346,20.2875354 L59.4834874,9.05524079 L57.8929986,9.05524079 L62.2206076,21.9447592 L63.7371201,21.9447592 Z M82.1387053,22 C84.9128136,22 86.8177715,20.6189802 86.8177715,18.4830028 C86.8361954,13.805949 79.5495375,15.5552408 79.5495375,12.203966 C79.5495375,11.0991501 80.6406868,10.4362606 82.3051518,10.4362606 C83.3408189,10.4362606 84.7093789,10.7492918 85.8745044,11.5042493 L86.5033024,10.1968838 C85.4306471,9.47875354 83.8956406,9 82.3976221,9 C79.715984,9 77.9220606,10.2889518 77.9220606,12.3144476 C77.9220606,16.9362606 85.2087184,15.1133144 85.1902244,18.5566573 C85.1902244,19.8087818 84.0250989,20.5637394 82.1571993,20.5637394 C80.6961689,20.5637394 79.050198,19.9008499 77.8480844,18.7592068 L77.1822984,20.029745 C78.4029061,21.1898017 80.2523116,22 82.1387053,22 Z M93.8454424,21.9447592 L97.377807,11.0254957 L100.873183,21.9447592 L102.389696,21.9447592 L106.735799,9.05524079 L105.200792,9.05524079 L101.686922,20.2875354 L98.1360632,9.05524079 L96.6565388,9.05524079 L93.1426682,20.2875354 L89.5918096,9.05524079 L88.0013209,9.05524079 L92.3289298,21.9447592 L93.8454424,21.9447592 Z M107.494055,21.9447592 L108.936592,18.6487252 L115.982827,18.6487252 L117.443857,21.9447592 L119.05284,21.9447592 L113.264201,9.05524079 L111.729194,9.05524079 L105.922061,21.9447592 L107.494055,21.9447592 Z M115.391017,17.286119 L109.546895,17.286119 L112.450462,10.6572238 L115.391017,17.286119 Z M122.566711,21.9447592 L122.566711,17.8569405 L125.951123,17.8569405 C129.150594,17.8569405 131,16.2181303 131,13.3824363 C131,10.6388102 129.150594,9.05524079 125.951123,9.05524079 L121.087186,9.05524079 L121.087186,21.9447592 L122.566711,21.9447592 Z M125.895641,16.4943343 L122.566711,16.4943343 L122.566711,10.417847 L125.895641,10.417847 C128.225892,10.417847 129.575957,11.4490085 129.575957,13.4192635 C129.575957,15.4447592 128.225892,16.4943343 125.895641,16.4943343 Z" id="NEWSWAP" stroke="#131313" stroke-width="0.535714286" fill="#000000" fill-rule="nonzero"></path>
    </g>
</svg>